<svg width="183" height="155" viewBox="0 0 183 155" fill="none" xmlns="http://www.w3.org/2000/svg">
<path d="M178.91 19.4867C180.397 19.4867 181.43 19.8188 182.008 20.483C182.669 21.1471 183 22.2679 183 23.8453V41.6534C183 46.8837 181.884 50.7857 179.653 53.3594C177.422 55.85 173.993 57.0953 169.365 57.0953H154.119C152.549 57.0953 151.433 56.7632 150.772 56.0991C150.111 55.4349 149.78 54.3141 149.78 52.7367V28.2039C149.78 26.3775 149.078 25.4642 147.673 25.4642C146.681 25.4642 145.938 25.7963 145.442 26.4605V60.8313H168.993C169.985 60.8313 170.481 61.2879 170.481 62.2011V65.439C170.481 66.2692 169.985 66.6843 168.993 66.6843H145.442V97.9418C145.442 99.5192 145.111 100.64 144.45 101.304C143.872 101.968 142.839 102.3 141.351 102.3H116.313C114.825 102.3 113.751 101.968 113.09 101.304C112.511 100.64 112.222 99.5192 112.222 97.9418V33.6833C112.222 31.6078 112.057 30.1134 111.726 29.2002C111.396 28.2039 110.817 27.3322 109.991 26.585C109.165 25.7548 107.76 24.6755 105.777 23.3472C105.363 23.0981 105.157 22.7245 105.157 22.2264V20.732C105.157 19.9018 105.653 19.4867 106.644 19.4867H178.91Z" fill="#C75825"/>
<path d="M73.2493 19.4867C74.6716 19.4867 75.6592 19.8023 76.2123 20.4336C76.8444 21.0648 77.1604 22.13 77.1604 23.6292V37.7136C77.1604 42.6846 76.0938 46.3931 73.9604 48.8392C71.8271 51.2063 68.5481 52.3899 64.1235 52.3899H49.5458C48.0446 52.3899 46.9779 52.0743 46.3458 51.443C45.7137 50.8118 45.3977 49.7466 45.3977 48.2474V27.7717C45.3977 26.0358 44.7261 25.1678 43.3829 25.1678C42.4347 25.1678 41.7236 25.4834 41.2496 26.1147V55.9406H63.7679C64.7161 55.9406 65.1901 56.3745 65.1901 57.2425V60.3198C65.1901 61.1088 64.7161 61.5033 63.7679 61.5033H41.2496V91.3292C41.7236 91.9605 42.4347 92.2761 43.3829 92.2761C44.7261 92.2761 45.3977 91.4081 45.3977 89.6722V69.4332C45.3977 67.9341 45.7137 66.8688 46.3458 66.2376C46.9779 65.6064 48.0446 65.2907 49.5458 65.2907H64.1235C68.5481 65.2907 71.8271 66.5138 73.9604 68.9598C76.0938 71.327 77.1604 74.996 77.1604 79.967V94.0514C77.1604 95.5506 76.8444 96.6158 76.2123 97.2471C75.6592 97.8783 74.6716 98.1939 73.2493 98.1939H13.3979C11.9757 98.1939 10.9485 97.8783 10.3165 97.2471C9.76337 96.6158 9.48683 95.5506 9.48683 94.0514V32.9794C9.48683 31.0068 9.32881 29.5865 9.01276 28.7185C8.69671 27.7717 8.14363 26.9432 7.35351 26.233C6.56339 25.444 5.22019 24.4182 3.32391 23.1558C2.92885 22.919 2.73132 22.564 2.73132 22.0905V20.6703C2.73132 19.8812 3.20539 19.4867 4.15354 19.4867H73.2493Z" fill="#C75825"/>
<path d="M118.924 84.4881L118.924 84.4881L118.917 84.4912C115.436 86.0126 111.685 86.777 107.651 86.777C100.785 86.777 95.2206 84.8272 90.8767 80.9884C86.6202 77.158 84.4943 72.2993 84.4943 66.3331C84.4943 61.6173 86.1205 57.6908 89.38 54.4881C92.6388 51.2862 96.6638 49.6804 101.524 49.6804C102.237 49.6804 102.723 49.8421 103.061 50.085L103.103 50.1146L103.147 50.1398C103.388 50.2783 103.47 50.4223 103.47 50.6944C103.47 50.8562 103.427 51.0353 103.294 51.2383C98.387 51.3163 94.362 52.6283 91.3225 55.2712C88.1724 58.0103 86.6187 61.6949 86.6187 66.2146C86.6187 69.7994 87.5757 73.0366 89.4993 75.8954L89.5087 75.9095L89.5187 75.9233C91.506 78.6705 94.1112 80.8276 97.3129 82.3959L97.3267 82.4026L97.3406 82.4089C100.624 83.8945 104.223 84.6304 108.123 84.6304C114.501 84.6304 119.737 83.0041 123.73 79.6579L123.73 79.658L123.74 79.65C127.748 76.2082 129.745 71.6582 129.745 66.0961C129.745 61.2934 128.257 57.0076 125.289 53.276C122.419 49.568 118.538 46.7455 113.687 44.7934C108.836 42.7622 103.401 41.7567 97.3993 41.7567C89.3892 41.7567 82.296 43.57 76.1523 47.2262C70.0206 50.7963 65.2943 55.7522 61.9875 62.0762C58.6819 68.3187 57.041 75.3931 57.041 83.2749C57.041 91.7145 58.8411 99.2678 62.466 105.909L62.466 105.909L62.4705 105.917C66.165 112.538 71.0802 117.65 77.2171 121.222L77.222 121.225C83.4299 124.791 90.2806 126.57 97.7528 126.57C105.152 126.57 111.745 124.748 117.498 121.082C123.226 117.432 127.667 112.56 130.811 106.481L130.814 106.477C133.956 100.321 135.519 93.4888 135.519 85.9999C135.519 83.9762 135.358 82.134 135.029 80.4791C134.907 79.8239 134.77 79.2551 134.613 78.784C134.475 78.3654 134.302 77.9644 134.07 77.6439C133.883 77.3017 133.62 77.0035 133.268 76.7911C132.887 76.5615 132.465 76.4697 132.044 76.4697H130.276C129.711 76.4697 129.212 76.6816 128.813 77.0522C128.466 77.307 128.062 77.736 127.63 78.2426C125.383 80.8777 122.49 82.9626 118.924 84.4881Z" fill="#C75825" stroke="white" stroke-width="2"/>
</svg>
